<?xml version="1.0" encoding="utf-8"?>
<!-- Generator: Adobe Illustrator 17.0.0, SVG Export Plug-In . SVG Version: 6.00 Build 0)  -->
<!DOCTYPE svg PUBLIC "-//W3C//DTD SVG 1.1//EN" "http://www.w3.org/Graphics/SVG/1.1/DTD/svg11.dtd">
<svg version="1.1" id="Layer_1" xmlns="http://www.w3.org/2000/svg" xmlns:xlink="http://www.w3.org/1999/xlink" x="0px" y="0px"
	 width="490px" height="400px" viewBox="0 0 490 400" enable-background="new 0 0 490 400" xml:space="preserve">
<g>
	<g>
		<g>
			<path fill="#91B3FA" d="M96.039,264.225c0,0-21.937-47.282-5.499-69.649c16.438-22.368,54.797-48.579,26.497-117.864
				C100.469,36.149,93.817,18.156,91.15,10.21c-1.041-3.1-4.744-4.355-7.449-2.518c-19.132,13-79.799,58.636-73.874,111.027
				C16.851,180.828,96.039,264.225,96.039,264.225z"/>
			<path fill="#FFFFFF" d="M75.893,33.797c-13.994,30.363-24.726,77.99-23.104,120.238c0.781,6.739,0.997,21.699,8.488,45.186
				c6.111,19.647,15.76,39.019,23.961,51.053c0.519,0.761,1.555,0.957,2.316,0.439c1.308-0.891,0.451-2.342,0.459-2.289
				c-12.601-21.174-23.566-49.583-28.009-77.589c-5.131-34.529,0.389-72.577,8.528-106.351l0.887-3.363
				c6.559-25.585,9.63-27.089,7.659-27.816C76.614,33.133,76.098,33.354,75.893,33.797z"/>
		</g>
		<g>
			<path fill="#BDD0FB" d="M114.192,280.659c-2.709,2.629,0.591-54.557-10.519-124.624c-5.235-33.018-1.334-68.591,11.619-89.57
				c10.781-17.46,64.025-25.974,81.584-28.339c2.194-0.296,3.742,2.094,2.571,3.972c-5.776,9.261-17.656,30.537-16.924,47.846
				c0.965,22.814-14.591,42.587-31.221,51.978c-16.63,9.392-25.396,16.107-24.806,47.397
				C127.086,220.609,121.889,273.189,114.192,280.659z"/>
			<path fill="#FFFFFF" d="M176.442,54.547c-20.857,7.765-40.417,24.796-46.049,46.637l-0.525,2.08
				c-1.194,4.865-6.061,38.275-6.204,64.703c-0.002,0.329,0.264,0.598,0.593,0.6c0.56,0.003,0.632-0.635,0.6-0.571
				c1.122-15.269,3.472-34.929,5.614-49.756c2.219-16.141,3.874-27.122,16.339-41.179c13.981-15.32,30.038-21.653,29.993-21.627
				c0.242-0.107,0.351-0.39,0.244-0.631C176.944,54.57,176.677,54.46,176.442,54.547z"/>
		</g>
	</g>
	<g>
		<linearGradient id="SVGID_1_" gradientUnits="userSpaceOnUse" x1="146.8684" y1="306.3851" x2="554.0555" y2="36.8596">
			<stop  offset="0" style="stop-color:#09005D"/>
			<stop  offset="1" style="stop-color:#1A0F91"/>
		</linearGradient>
		<path fill="url(#SVGID_1_)" d="M32.046,365.777c0,4.205,3.444,7.645,7.653,7.645h413.818c4.209,0,7.653-3.44,7.653-7.645
			l3.443-237.81c0-4.205-4.954-12.414-14.033-11.797L46.151,105.705c-5.281-0.137-10.387,1.896-14.127,5.623
			c-3.74,3.727-5.786,8.824-5.661,14.1L32.046,365.777z"/>
		<path fill="#7D97F4" d="M39.601,358.442c0,3.982,3.258,7.24,7.24,7.24h396.697c3.982,0,7.24-3.258,7.24-7.24l3.249-215.886
			c-0.383-12.992-11.773-17.661-18.677-17.385L47.742,114.772c-3.71-0.1-7.297,1.33-9.925,3.951s-4.073,6.208-3.98,9.918
			L39.601,358.442z"/>
		<linearGradient id="SVGID_2_" gradientUnits="userSpaceOnUse" x1="245.6374" y1="214.8062" x2="245.6374" y2="315.7797">
			<stop  offset="0" style="stop-color:#09005D"/>
			<stop  offset="1" style="stop-color:#1A0F91"/>
		</linearGradient>
		<path fill="url(#SVGID_2_)" d="M11.65,393.163h467.974c0.525,0,0.954-0.429,0.954-0.954v-18.986c0-0.525-0.429-0.954-0.954-0.954
			H11.65c-0.525,0-0.954,0.429-0.954,0.954v18.986C10.696,392.733,11.126,393.163,11.65,393.163z"/>
		<g>
			<path opacity="0.53" fill="#BDD0FB" d="M170.247,147.619l-105.246-0.737c-0.772-0.005-1.394-0.636-1.388-1.408l0.047-6.731
				c0.005-0.772,0.636-1.394,1.408-1.388l105.246,0.737c0.772,0.005,1.394,0.636,1.388,1.408l-0.047,6.731
				C171.65,147.002,171.019,147.624,170.247,147.619z"/>
			<path opacity="0.53" fill="#BDD0FB" d="M237.933,148.3l-35.227-0.247c-0.741-0.005-1.337-0.61-1.332-1.351l0.048-6.844
				c0.005-0.741,0.61-1.337,1.351-1.332l35.227,0.247c0.741,0.005,1.337,0.61,1.332,1.351l-0.048,6.844
				C239.278,147.709,238.673,148.305,237.933,148.3z"/>
			<path opacity="0.53" fill="#BDD0FB" d="M319.825,148.873l-70.607-0.494c-1.178-0.008-2.126-0.97-2.117-2.147l0.037-5.262
				c0.008-1.178,0.97-2.126,2.147-2.117l70.607,0.494c1.178,0.008,2.126,0.97,2.117,2.147l-0.037,5.262
				C321.964,147.933,321.003,148.881,319.825,148.873z"/>
			<path opacity="0.53" fill="#BDD0FB" d="M90.154,163.802l-24.698-0.173c-1.178-0.008-2.126-0.97-2.117-2.147l0.037-5.262
				c0.008-1.178,0.97-2.126,2.147-2.117l24.698,0.173c1.178,0.008,2.126,0.97,2.117,2.147l-0.037,5.262
				C92.293,162.862,91.332,163.81,90.154,163.802z"/>
			<path opacity="0.53" fill="#BDD0FB" d="M170.344,164.38l-75.778-0.531c-0.772-0.005-1.394-0.636-1.388-1.408l0.047-6.731
				c0.005-0.772,0.636-1.394,1.408-1.388l75.778,0.531c0.772,0.005,1.394,0.636,1.388,1.408l-0.047,6.731
				C171.746,163.764,171.116,164.386,170.344,164.38z"/>
			<path opacity="0.53" fill="#BDD0FB" d="M238.12,165.062l-35.227-0.247c-0.741-0.005-1.337-0.61-1.332-1.351l0.048-6.844
				c0.005-0.741,0.61-1.337,1.351-1.332l35.227,0.247c0.741,0.005,1.337,0.61,1.332,1.351l-0.048,6.844
				C239.465,164.471,238.861,165.067,238.12,165.062z"/>
			<path opacity="0.53" fill="#BDD0FB" d="M381.005,166.063l-105.417-0.738c-1.178-0.008-2.126-0.97-2.117-2.147l0.037-5.262
				c0.008-1.178,0.97-2.126,2.147-2.117l105.417,0.738c1.178,0.008,2.126,0.97,2.117,2.147l-0.037,5.262
				C383.144,165.123,382.183,166.071,381.005,166.063z"/>
			<path opacity="0.53" fill="#BDD0FB" d="M90.016,180.537l-24.698-0.173c-1.178-0.008-2.126-0.97-2.117-2.147l0.037-5.262
				c0.008-1.178,0.97-2.126,2.147-2.117l24.698,0.173c1.178,0.008,2.126,0.97,2.117,2.147l-0.037,5.262
				C92.154,179.598,91.193,180.546,90.016,180.537z"/>
			<path opacity="0.53" fill="#BDD0FB" d="M170.189,181.116l-75.778-0.531c-0.772-0.005-1.394-0.636-1.388-1.408l0.047-6.731
				c0.005-0.772,0.636-1.394,1.408-1.388l75.778,0.531c0.772,0.005,1.393,0.636,1.388,1.408l-0.047,6.731
				C171.591,180.5,170.961,181.122,170.189,181.116z"/>
			<path opacity="0.53" fill="#BDD0FB" d="M237.975,181.798l-35.227-0.247c-0.741-0.005-1.337-0.61-1.332-1.351l0.048-6.844
				c0.005-0.741,0.61-1.337,1.351-1.332l35.227,0.247c0.741,0.005,1.337,0.61,1.332,1.351l-0.048,6.844
				C239.32,181.207,238.716,181.803,237.975,181.798z"/>
			<path opacity="0.53" fill="#BDD0FB" d="M427.551,183.125l-138.658-0.971c-1.178-0.008-2.126-0.97-2.117-2.147l0.037-5.262
				c0.008-1.178,0.97-2.126,2.147-2.117l138.658,0.971c1.178,0.008,2.126,0.97,2.117,2.147l-0.037,5.262
				C429.69,182.186,428.728,183.134,427.551,183.125z"/>
			<path opacity="0.53" fill="#BDD0FB" d="M90.131,197.299l-24.698-0.173c-1.178-0.008-2.126-0.97-2.117-2.147l0.037-5.262
				c0.008-1.178,0.97-2.126,2.147-2.117l24.698,0.173c1.178,0.008,2.126,0.97,2.117,2.147l-0.037,5.262
				C92.27,196.36,91.309,197.308,90.131,197.299z"/>
			<path opacity="0.53" fill="#BDD0FB" d="M170.485,197.879l-75.778-0.531c-0.772-0.005-1.393-0.636-1.388-1.408l0.047-6.731
				c0.005-0.772,0.636-1.394,1.408-1.388l75.778,0.531c0.772,0.005,1.394,0.636,1.388,1.408l-0.047,6.731
				C171.887,197.263,171.257,197.885,170.485,197.879z"/>
			<path opacity="0.53" fill="#BDD0FB" d="M238.162,198.56l-35.227-0.247c-0.741-0.005-1.337-0.61-1.332-1.351l0.048-6.844
				c0.005-0.741,0.61-1.337,1.351-1.332l35.227,0.247c0.741,0.005,1.337,0.61,1.332,1.351l-0.048,6.844
				C239.508,197.969,238.903,198.565,238.162,198.56z"/>
			<path opacity="0.53" fill="#BDD0FB" d="M428.185,199.891l-138.658-0.971c-1.178-0.008-2.126-0.97-2.117-2.147l0.037-5.262
				c0.008-1.178,0.97-2.126,2.147-2.117l138.658,0.971c1.178,0.008,2.126,0.97,2.117,2.147l-0.037,5.262
				C430.324,198.951,429.362,199.899,428.185,199.891z"/>
			<path opacity="0.53" fill="#BDD0FB" d="M89.921,214.69l-24.698-0.173c-1.178-0.008-2.126-0.97-2.117-2.147l0.037-5.262
				c0.008-1.178,0.97-2.126,2.147-2.117l24.698,0.173c1.178,0.008,2.126,0.97,2.117,2.147l-0.037,5.262
				C92.06,213.75,91.099,214.698,89.921,214.69z"/>
			<path opacity="0.53" fill="#BDD0FB" d="M170.207,215.269l-75.778-0.531c-0.772-0.005-1.393-0.636-1.388-1.408l0.047-6.731
				c0.005-0.772,0.636-1.393,1.408-1.388l75.778,0.531c0.772,0.005,1.394,0.636,1.388,1.408l-0.047,6.731
				C171.609,214.653,170.979,215.275,170.207,215.269z"/>
			<path opacity="0.53" fill="#BDD0FB" d="M237.925,215.95l-35.227-0.247c-0.741-0.005-1.337-0.61-1.332-1.351l0.048-6.844
				c0.005-0.741,0.61-1.337,1.351-1.332l35.227,0.247c0.741,0.005,1.337,0.61,1.332,1.351l-0.048,6.844
				C239.271,215.359,238.666,215.956,237.925,215.95z"/>
			<path opacity="0.53" fill="#BDD0FB" d="M427.779,217.28l-138.658-0.971c-1.178-0.008-2.126-0.97-2.117-2.147l0.037-5.262
				c0.008-1.178,0.97-2.126,2.147-2.117l138.658,0.971c1.178,0.008,2.126,0.97,2.117,2.147l-0.037,5.262
				C429.918,216.34,428.957,217.288,427.779,217.28z"/>
			<path opacity="0.53" fill="#BDD0FB" d="M90.037,231.452l-24.698-0.173c-1.178-0.008-2.126-0.97-2.117-2.147l0.037-5.262
				c0.008-1.178,0.97-2.126,2.147-2.117l24.698,0.173c1.178,0.008,2.126,0.97,2.117,2.147l-0.037,5.262
				C92.176,230.512,91.214,231.46,90.037,231.452z"/>
			<path opacity="0.53" fill="#BDD0FB" d="M170.503,232.033l-75.778-0.531c-0.772-0.005-1.393-0.636-1.388-1.408l0.047-6.731
				c0.005-0.772,0.636-1.393,1.408-1.388l75.778,0.531c0.772,0.005,1.394,0.636,1.388,1.408l-0.047,6.731
				C171.905,231.417,171.275,232.038,170.503,232.033z"/>
			<path opacity="0.53" fill="#BDD0FB" d="M238.113,232.713l-35.227-0.247c-0.741-0.005-1.337-0.61-1.332-1.351l0.048-6.844
				c0.005-0.741,0.61-1.337,1.351-1.332l35.227,0.247c0.741,0.005,1.337,0.61,1.332,1.351l-0.048,6.844
				C239.458,232.122,238.853,232.718,238.113,232.713z"/>
			<path opacity="0.53" fill="#BDD0FB" d="M331.927,233.37l-83.3-0.583c-1.178-0.008-2.126-0.97-2.117-2.147l0.037-5.262
				c0.008-1.178,0.97-2.126,2.147-2.117l83.3,0.583c1.178,0.008,2.126,0.97,2.117,2.147l-0.037,5.262
				C334.066,232.43,333.105,233.378,331.927,233.37z"/>
			<path opacity="0.53" fill="#BDD0FB" d="M170.406,248.769l-105.835-0.741c-0.772-0.005-1.394-0.636-1.388-1.408l0.047-6.731
				c0.005-0.772,0.636-1.394,1.408-1.388l105.835,0.741c0.772,0.005,1.394,0.636,1.388,1.408l-0.047,6.731
				C171.808,248.153,171.178,248.774,170.406,248.769z"/>
			<path opacity="0.53" fill="#BDD0FB" d="M237.968,249.448l-35.227-0.247c-0.741-0.005-1.337-0.61-1.332-1.351l0.048-6.844
				c0.005-0.741,0.61-1.337,1.351-1.332l35.227,0.247c0.741,0.005,1.337,0.61,1.332,1.351l-0.048,6.844
				C239.313,248.857,238.708,249.454,237.968,249.448z"/>
			<path opacity="0.53" fill="#BDD0FB" d="M373.149,250.395l-104.905-0.735c-1.178-0.008-2.126-0.97-2.117-2.147l0.037-5.262
				c0.008-1.178,0.97-2.126,2.147-2.117l104.905,0.735c1.178,0.008,2.126,0.97,2.117,2.147l-0.037,5.262
				C375.288,249.456,374.327,250.403,373.149,250.395z"/>
			<path opacity="0.53" fill="#BDD0FB" d="M88.923,264.942l-23.54-0.165c-1.178-0.008-2.126-0.97-2.117-2.147l0.037-5.262
				c0.008-1.178,0.97-2.126,2.147-2.117l23.54,0.165c1.178,0.008,2.126,0.97,2.117,2.147l-0.037,5.262
				C91.062,264.002,90.101,264.95,88.923,264.942z"/>
			<path opacity="0.53" fill="#BDD0FB" d="M170.643,265.532l-75.778-0.531c-0.772-0.005-1.394-0.636-1.388-1.408l0.047-6.731
				c0.005-0.772,0.636-1.394,1.408-1.388l75.778,0.531c0.772,0.005,1.394,0.636,1.388,1.408l-0.047,6.731
				C172.046,264.916,171.415,265.537,170.643,265.532z"/>
			<path opacity="0.53" fill="#BDD0FB" d="M238.155,266.211l-35.227-0.247c-0.741-0.005-1.337-0.61-1.332-1.351l0.048-6.844
				c0.005-0.741,0.61-1.337,1.351-1.332l35.227,0.247c0.741,0.005,1.337,0.61,1.332,1.351l-0.048,6.844
				C239.5,265.62,238.896,266.216,238.155,266.211z"/>
			<path opacity="0.53" fill="#BDD0FB" d="M428.37,267.543l-143.513-1.005c-1.178-0.008-2.126-0.97-2.117-2.147l0.037-5.262
				c0.008-1.178,0.97-2.126,2.147-2.117l143.513,1.005c1.178,0.008,2.126,0.97,2.117,2.147l-0.037,5.262
				C430.509,266.603,429.547,267.551,428.37,267.543z"/>
			<path opacity="0.53" fill="#BDD0FB" d="M89.063,314.961l-24.698-0.173c-1.178-0.008-2.126-0.97-2.117-2.147l0.037-5.262
				c0.008-1.178,0.97-2.126,2.147-2.117l24.698,0.173c1.178,0.008,2.126,0.97,2.117,2.147l-0.037,5.262
				C91.202,314.021,90.24,314.969,89.063,314.961z"/>
			<path opacity="0.53" fill="#BDD0FB" d="M169.567,315.542l-75.778-0.531c-0.772-0.005-1.394-0.636-1.388-1.408l0.047-6.731
				c0.005-0.772,0.636-1.393,1.408-1.388l75.778,0.531c0.772,0.005,1.393,0.636,1.388,1.408l-0.047,6.731
				C170.969,314.926,170.339,315.548,169.567,315.542z"/>
			<path opacity="0.53" fill="#BDD0FB" d="M237.139,316.222l-35.227-0.247c-0.741-0.005-1.337-0.61-1.332-1.351l0.048-6.844
				c0.005-0.741,0.61-1.337,1.351-1.332l35.227,0.247c0.741,0.005,1.337,0.61,1.332,1.351l-0.048,6.844
				C238.484,315.631,237.88,316.227,237.139,316.222z"/>
			<path opacity="0.53" fill="#BDD0FB" d="M330.953,316.879l-83.3-0.583c-1.178-0.008-2.126-0.97-2.117-2.147l0.037-5.262
				c0.008-1.178,0.97-2.126,2.147-2.117l83.3,0.583c1.178,0.008,2.126,0.97,2.117,2.147l-0.037,5.262
				C333.092,315.939,332.131,316.887,330.953,316.879z"/>
			<path opacity="0.53" fill="#BDD0FB" d="M169.47,332.278l-105.835-0.741c-0.772-0.005-1.394-0.636-1.388-1.408l0.047-6.731
				c0.005-0.772,0.636-1.393,1.408-1.388l105.835,0.741c0.772,0.005,1.394,0.636,1.388,1.408l-0.047,6.731
				C170.872,331.662,170.242,332.284,169.47,332.278z"/>
			<path opacity="0.53" fill="#BDD0FB" d="M236.994,332.958l-35.227-0.247c-0.741-0.005-1.337-0.61-1.332-1.351l0.048-6.844
				c0.005-0.741,0.61-1.337,1.351-1.332l35.227,0.247c0.741,0.005,1.337,0.61,1.332,1.351l-0.048,6.844
				C238.339,332.366,237.735,332.963,236.994,332.958z"/>
			<path opacity="0.53" fill="#BDD0FB" d="M372.117,333.904l-104.905-0.735c-1.178-0.008-2.126-0.97-2.117-2.147l0.037-5.262
				c0.008-1.178,0.97-2.126,2.147-2.117l104.905,0.735c1.178,0.008,2.126,0.97,2.117,2.147l-0.037,5.262
				C374.256,332.964,373.294,333.912,372.117,333.904z"/>
			<path opacity="0.53" fill="#BDD0FB" d="M87.95,348.451l-23.54-0.165c-1.178-0.008-2.126-0.97-2.117-2.147l0.037-5.262
				c0.008-1.178,0.97-2.126,2.147-2.117l23.54,0.165c1.178,0.008,2.126,0.97,2.117,2.147l-0.037,5.262
				C90.089,347.511,89.127,348.459,87.95,348.451z"/>
			<path opacity="0.53" fill="#BDD0FB" d="M169.708,349.041l-75.778-0.531c-0.772-0.005-1.393-0.636-1.388-1.408l0.047-6.731
				c0.005-0.772,0.636-1.393,1.408-1.388l75.778,0.531c0.772,0.005,1.394,0.636,1.388,1.408l-0.047,6.731
				C171.11,348.425,170.48,349.047,169.708,349.041z"/>
			<path opacity="0.53" fill="#BDD0FB" d="M237.181,349.72l-35.227-0.247c-0.741-0.005-1.337-0.61-1.332-1.351l0.048-6.844
				c0.005-0.741,0.61-1.337,1.351-1.332l35.227,0.247c0.741,0.005,1.337,0.61,1.332,1.351l-0.048,6.844
				C238.527,349.129,237.922,349.725,237.181,349.72z"/>
			<path opacity="0.53" fill="#BDD0FB" d="M427.337,351.052l-143.513-1.005c-1.178-0.008-2.126-0.97-2.117-2.147l0.037-5.262
				c0.008-1.178,0.97-2.126,2.147-2.117l143.513,1.005c1.178,0.008,2.126,0.97,2.117,2.147l-0.037,5.262
				C429.476,350.112,428.515,351.06,427.337,351.052z"/>
			<path opacity="0.53" fill="#BDD0FB" d="M88.479,281.985l-23.54-0.165c-1.178-0.008-2.126-0.97-2.117-2.147l0.037-5.262
				c0.008-1.178,0.97-2.126,2.147-2.117l23.54,0.165c1.178,0.008,2.126,0.97,2.117,2.147l-0.037,5.262
				C90.618,281.046,89.657,281.994,88.479,281.985z"/>
			<path opacity="0.53" fill="#BDD0FB" d="M169.923,282.573l-75.778-0.531c-0.772-0.005-1.394-0.636-1.388-1.408l0.047-6.731
				c0.005-0.772,0.636-1.393,1.408-1.388l75.778,0.531c0.772,0.005,1.394,0.636,1.388,1.408l-0.047,6.731
				C171.326,281.957,170.695,282.579,169.923,282.573z"/>
			<path opacity="0.53" fill="#BDD0FB" d="M237.592,283.254l-35.227-0.247c-0.741-0.005-1.337-0.61-1.332-1.351l0.048-6.844
				c0.005-0.741,0.61-1.337,1.351-1.332l35.227,0.247c0.741,0.005,1.337,0.61,1.332,1.351l-0.048,6.844
				C238.938,282.663,238.333,283.259,237.592,283.254z"/>
			<path opacity="0.53" fill="#BDD0FB" d="M427.121,284.581l-143.513-1.005c-1.178-0.008-2.126-0.97-2.117-2.147l0.037-5.262
				c0.008-1.178,0.97-2.126,2.147-2.117l143.513,1.005c1.178,0.008,2.126,0.97,2.117,2.147l-0.037,5.262
				C429.26,283.641,428.298,284.589,427.121,284.581z"/>
			<path opacity="0.53" fill="#BDD0FB" d="M88.585,298.747l-23.54-0.165c-1.178-0.008-2.126-0.97-2.117-2.147l0.037-5.262
				c0.008-1.178,0.97-2.126,2.147-2.117l23.54,0.165c1.178,0.008,2.126,0.97,2.117,2.147l-0.037,5.262
				C90.724,297.807,89.763,298.755,88.585,298.747z"/>
			<path opacity="0.53" fill="#BDD0FB" d="M170.219,299.337l-75.778-0.531c-0.772-0.005-1.393-0.636-1.388-1.408l0.047-6.731
				c0.005-0.772,0.636-1.393,1.408-1.388l75.778,0.531c0.772,0.005,1.394,0.636,1.388,1.408l-0.047,6.731
				C171.621,298.721,170.991,299.342,170.219,299.337z"/>
			<path opacity="0.53" fill="#BDD0FB" d="M237.78,300.016l-35.227-0.247c-0.741-0.005-1.337-0.61-1.332-1.351l0.048-6.844
				c0.005-0.741,0.61-1.337,1.351-1.332l35.227,0.247c0.741,0.005,1.337,0.61,1.332,1.351l-0.048,6.844
				C239.125,299.425,238.521,300.021,237.78,300.016z"/>
			<path opacity="0.53" fill="#BDD0FB" d="M427.78,301.347l-143.513-1.005c-1.178-0.008-2.126-0.97-2.117-2.147l0.037-5.262
				c0.008-1.178,0.97-2.126,2.147-2.117l143.513,1.005c1.178,0.008,2.126,0.97,2.117,2.147l-0.037,5.262
				C429.919,300.407,428.958,301.355,427.78,301.347z"/>
			<path opacity="0.53" fill="#BDD0FB" d="M186.675,360.444l-1.932-0.014c-0.432-0.003-0.78-0.356-0.777-0.788l1.633-233.214
				c0.003-0.432,0.356-0.78,0.788-0.777l1.932,0.014c0.432,0.003,0.78,0.356,0.777,0.788l-1.633,233.214
				C187.46,360.099,187.107,360.447,186.675,360.444z"/>
		</g>
	</g>
	<g>
		<circle fill="#2B85EE" cx="383.955" cy="261.553" r="40.729"/>
		<g>
			<path fill="#FFFFFF" d="M373.031,270.391l-16.008-8.147v-2.624l16.008-9.27v4.466l-11.075,5.915l11.075,5.212V270.391z"/>
			<path fill="#FFFFFF" d="M390.061,246.734l-9.105,27.515l-4.573-0.047l9.033-27.406L390.061,246.734z"/>
			<path fill="#FFFFFF" d="M393.445,266.005l11.7-5.34l-11.7-5.986v-4.545l17.062,9.351v2.748l-17.062,8.298V266.005z"/>
		</g>
	</g>
	<g>
		<linearGradient id="SVGID_3_" gradientUnits="userSpaceOnUse" x1="248.4299" y1="48.4995" x2="329.8876" y2="48.4995">
			<stop  offset="0" style="stop-color:#4F52FF"/>
			<stop  offset="1" style="stop-color:#4042E2"/>
		</linearGradient>
		<circle fill="url(#SVGID_3_)" cx="289.159" cy="48.5" r="40.729"/>
		<g>
			<linearGradient id="SVGID_4_" gradientUnits="userSpaceOnUse" x1="269.5441" y1="47.0512" x2="281.161" y2="47.0512">
				<stop  offset="0" style="stop-color:#DAE3FE"/>
				<stop  offset="1" style="stop-color:#E9EFFD"/>
			</linearGradient>
			<path fill="url(#SVGID_4_)" d="M272.803,64.762c-1.25-0.022-2.336-0.176-3.259-0.464v-4.785c0.947,0.258,1.814,0.392,2.598,0.401
				c1.216,0.014,2.088-0.37,2.614-1.155c0.527-0.785,0.791-2.018,0.791-3.699V29.471l5.614-0.132v25.717
				c0,3.208-0.71,5.643-2.127,7.301C277.621,64.009,275.541,64.809,272.803,64.762z"/>
			<linearGradient id="SVGID_5_" gradientUnits="userSpaceOnUse" x1="287.4915" y1="46.3062" x2="308.5447" y2="46.3062">
				<stop  offset="0" style="stop-color:#DAE3FE"/>
				<stop  offset="1" style="stop-color:#E9EFFD"/>
			</linearGradient>
			<path fill="url(#SVGID_5_)" d="M308.545,53.648c0,2.986-1.073,5.328-3.212,7.019c-2.129,1.683-5.073,2.494-8.818,2.438
				c-3.422-0.051-6.427-0.746-9.023-2.079v-6.362c2.133,0.986,3.947,1.686,5.438,2.097c1.496,0.412,2.867,0.624,4.114,0.635
				c1.502,0.013,2.657-0.269,3.464-0.845c0.809-0.577,1.213-1.442,1.213-2.595c0-0.643-0.178-1.216-0.534-1.719
				c-0.356-0.502-0.878-0.985-1.566-1.449c-0.687-0.463-2.083-1.201-4.182-2.211c-1.959-0.931-3.421-1.824-4.393-2.677
				c-0.97-0.852-1.744-1.844-2.321-2.976c-0.576-1.131-0.865-2.454-0.865-3.971c0-2.859,0.948-5.123,2.849-6.798
				c1.909-1.683,4.562-2.566,7.971-2.644c1.685-0.039,3.298,0.127,4.839,0.496c1.546,0.371,3.168,0.908,4.869,1.611l-2.256,5.483
				c-1.752-0.696-3.195-1.176-4.333-1.442c-1.135-0.265-2.248-0.39-3.341-0.372c-1.295,0.021-2.286,0.342-2.976,0.963
				c-0.688,0.62-1.031,1.419-1.031,2.398c0,0.609,0.139,1.137,0.417,1.588c0.277,0.451,0.721,0.884,1.329,1.302
				c0.609,0.418,2.054,1.169,4.345,2.257c3.047,1.45,5.148,2.916,6.288,4.394C307.971,49.67,308.545,51.491,308.545,53.648z"/>
		</g>
	</g>
	<g>
		<circle fill="#2B85EE" cx="377.73" cy="68.982" r="40.305"/>
		<g>
			<path fill="#FFFFFF" d="M361.671,77.425l-2.944-0.163v-6.375l-5.474-0.27v6.342l-2.908-0.161V62.143l2.908,0.121v5.759
				l5.474,0.257v-5.789l2.944,0.123V77.425z"/>
			<path fill="#FFFFFF" d="M371.655,77.977l-3.009-0.166V65.535l-3.829-0.169v-2.621l10.715,0.446v2.647l-3.877-0.171V77.977z"/>
			<path fill="#FFFFFF" d="M384.887,78.709l-3.498-12.025L381.3,66.68c0.125,2.413,0.188,4.021,0.188,4.826v7.015l-2.738-0.151
				V63.325l4.176,0.174l3.448,11.728l0.06,0.003l3.681-11.432l4.263,0.177v15.258l-2.923-0.162v-7.203
				c0-0.34,0.005-0.732,0.015-1.176c0.01-0.444,0.055-1.621,0.136-3.533l-0.091-0.004l-3.791,11.709L384.887,78.709z"/>
			<path fill="#FFFFFF" d="M399.171,79.499V64.175l3.18,0.132v12.677l6.134,0.325v2.706L399.171,79.499z"/>
		</g>
	</g>
	<g>
		<linearGradient id="SVGID_6_" gradientUnits="userSpaceOnUse" x1="369.5801" y1="166.5874" x2="446.165" y2="166.5874">
			<stop  offset="0" style="stop-color:#4F52FF"/>
			<stop  offset="1" style="stop-color:#4042E2"/>
		</linearGradient>
		<circle fill="url(#SVGID_6_)" cx="407.873" cy="166.587" r="38.292"/>
		<g>
			<linearGradient id="SVGID_7_" gradientUnits="userSpaceOnUse" x1="381.9982" y1="166.2391" x2="396.7995" y2="166.2391">
				<stop  offset="0" style="stop-color:#DAE3FE"/>
				<stop  offset="1" style="stop-color:#E9EFFD"/>
			</linearGradient>
			<path fill="url(#SVGID_7_)" d="M391.003,158.947c-1.558-0.016-2.756,0.618-3.6,1.896c-0.841,1.274-1.257,3.057-1.252,5.351
				c0.01,4.772,1.626,7.22,4.879,7.348c1.378,0.054,3.056-0.261,5.04-0.951l0.006,3.879c-1.632,0.67-3.442,0.957-5.427,0.864
				c-2.825-0.133-4.966-1.175-6.441-3.12c-1.467-1.934-2.201-4.648-2.21-8.152c-0.005-2.207,0.347-4.136,1.06-5.789
				c0.715-1.658,1.748-2.93,3.105-3.815c1.364-0.89,2.973-1.335,4.833-1.33c1.91,0.005,3.844,0.522,5.803,1.557l-1.361,3.756
				c-0.745-0.397-1.492-0.744-2.241-1.04C392.45,159.105,391.719,158.954,391.003,158.947z"/>
			<linearGradient id="SVGID_8_" gradientUnits="userSpaceOnUse" x1="400.5245" y1="166.6271" x2="414.1218" y2="166.6271">
				<stop  offset="0" style="stop-color:#DAE3FE"/>
				<stop  offset="1" style="stop-color:#E9EFFD"/>
			</linearGradient>
			<path fill="url(#SVGID_8_)" d="M414.122,171.852c0.001,2.04-0.694,3.619-2.077,4.731c-1.376,1.106-3.278,1.6-5.696,1.487
				c-2.207-0.104-4.145-0.637-5.819-1.597l-0.005-4.335c1.375,0.713,2.545,1.226,3.507,1.535c0.965,0.311,1.85,0.482,2.655,0.514
				c0.97,0.038,1.716-0.131,2.237-0.509c0.522-0.378,0.783-0.961,0.783-1.748c0-0.439-0.116-0.834-0.346-1.184
				c-0.23-0.349-0.568-0.689-1.013-1.019c-0.444-0.329-1.346-0.86-2.703-1.589c-1.264-0.673-2.209-1.308-2.837-1.91
				c-0.627-0.599-1.126-1.291-1.499-2.074c-0.373-0.782-0.559-1.69-0.56-2.726c-0.002-1.951,0.607-3.481,1.832-4.592
				c1.231-1.117,2.944-1.674,5.148-1.669c1.09,0.003,2.134,0.144,3.131,0.423c1.001,0.281,2.053,0.677,3.155,1.187l-1.46,3.713
				c-1.134-0.507-2.069-0.861-2.805-1.064c-0.735-0.202-1.455-0.306-2.161-0.314c-0.838-0.008-1.478,0.194-1.923,0.605
				c-0.444,0.411-0.665,0.951-0.665,1.62c0,0.416,0.09,0.78,0.27,1.092c0.18,0.313,0.466,0.617,0.859,0.913
				c0.393,0.297,1.328,0.837,2.809,1.622c1.971,1.047,3.331,2.088,4.07,3.12C413.75,169.123,414.121,170.378,414.122,171.852z"/>
			<linearGradient id="SVGID_9_" gradientUnits="userSpaceOnUse" x1="418.2173" y1="167.0747" x2="432.7901" y2="167.0747">
				<stop  offset="0" style="stop-color:#DAE3FE"/>
				<stop  offset="1" style="stop-color:#E9EFFD"/>
			</linearGradient>
			<path fill="url(#SVGID_9_)" d="M432.79,172.493c-0.002,2.113-0.749,3.747-2.234,4.896c-1.477,1.143-3.517,1.651-6.108,1.53
				c-2.365-0.111-4.44-0.666-6.231-1.662l0-4.485c1.472,0.74,2.724,1.272,3.754,1.593c1.033,0.323,1.981,0.502,2.844,0.535
				c1.039,0.041,1.839-0.133,2.398-0.523c0.56-0.391,0.841-0.994,0.841-1.809c0-0.455-0.123-0.864-0.37-1.226
				c-0.246-0.362-0.608-0.714-1.085-1.056c-0.475-0.341-1.442-0.891-2.894-1.648c-1.354-0.697-2.365-1.356-3.036-1.979
				c-0.67-0.621-1.204-1.336-1.603-2.147c-0.398-0.809-0.597-1.749-0.597-2.821c0-2.019,0.654-3.601,1.968-4.751
				c1.32-1.156,3.156-1.733,5.518-1.727c1.168,0.003,2.287,0.149,3.356,0.439c1.074,0.291,2.201,0.701,3.382,1.23l-1.571,3.845
				c-1.216-0.526-2.217-0.893-3.007-1.103c-0.787-0.209-1.559-0.318-2.316-0.325c-0.898-0.009-1.584,0.2-2.061,0.626
				c-0.476,0.425-0.714,0.984-0.714,1.677c0,0.43,0.096,0.807,0.288,1.13c0.192,0.324,0.499,0.639,0.92,0.946
				c0.421,0.308,1.422,0.867,3.009,1.681c2.112,1.086,3.569,2.165,4.36,3.235C432.395,169.665,432.792,170.966,432.79,172.493z"/>
		</g>
	</g>
</g>
</svg>
