<?xml version="1.0" encoding="utf-8"?>
<!-- Generator: Adobe Illustrator 17.0.0, SVG Export Plug-In . SVG Version: 6.00 Build 0)  -->
<!DOCTYPE svg PUBLIC "-//W3C//DTD SVG 1.1//EN" "http://www.w3.org/Graphics/SVG/1.1/DTD/svg11.dtd">
<svg version="1.1" id="Layer_1" xmlns="http://www.w3.org/2000/svg" xmlns:xlink="http://www.w3.org/1999/xlink" x="0px" y="0px"
	 width="500px" height="500px" viewBox="0 0 500 500" enable-background="new 0 0 500 500" xml:space="preserve">
<path fill="#000065" d="M424.953,446.991c26.971-23.461,49.234-62.017,57.589-96.414c31.119-128.11-31.768-278.602-155.133-330.219
	c-43.061-18.011-84.168-15.765-128.489-2.083C104.996,47.271,12.552,148.514,9.653,249.253
	c-2.051,71.283,35.193,135.275,91.605,176.816C189.397,490.974,333.849,526.238,424.953,446.991z"/>
<g>
	<g>
		<path fill="#FFFFFF" d="M255.98,219.445c-14.702,0.004-30.875-7.856-35.357-26.44c-3.851-15.968,5.465-29.403,12.954-40.199
			l1.705-2.47c6.467-9.442,9.624-16.959,10.898-25.947c0.627-4.415,4.711-7.513,9.138-6.866c4.419,0.627,7.493,4.719,6.866,9.138
			c-1.63,11.49-5.69,21.303-13.565,32.805l-1.764,2.553c-6.23,8.98-12.67,18.273-10.519,27.198
			c2.663,11.044,13.104,14.923,22.352,13.92c8.081-0.908,17.574-6.167,17.732-18.024c0.182-12.879-5.65-22.202-14.571-34.959
			c-2.557-3.658-1.661-8.692,1.997-11.253c3.666-2.545,8.692-1.649,11.249,1.997c8.325,11.9,17.748,25.387,17.487,44.436
			c-0.284,20.944-16.327,32.098-32.098,33.862C259.01,219.362,257.499,219.445,255.98,219.445z"/>
	</g>
	<g>
		<path fill="#FFFFFF" d="M298.152,381.791c-3.725,0-7.079-2.596-7.891-6.384c-1.168-5.437-2.336-10.882-3.354-16.343
			c-3.149-16.903-7.789-41.785,7.631-57.584c12.847-13.163,33.215-14.946,49.582-16.383c2.691-0.237,5.303-0.458,7.765-0.734
			c32.52-3.591,55.974-12.966,64.346-25.718c4.111-6.258,4.79-13.565,2.083-22.337c-2.833-9.197-7.907-15.073-15.507-17.953
			c-17.842-6.759-48.011,3.685-69.997,17.065c-3.78,2.304-7.536,4.719-11.316,7.146c-13.952,8.961-28.385,18.217-45.115,22.85
			c-17.933,4.964-36.951,2.943-58.152-6.163c-11.778-5.066-23.007-11.3-33.862-17.326c-6.656-3.693-13.305-7.386-20.084-10.811
			c-17.87-9.036-36.529-15.893-50.789-20.857c-4.218-1.468-6.443-6.072-4.976-10.286c1.464-4.218,6.057-6.455,10.286-4.976
			c14.737,5.129,34.051,12.232,52.77,21.693c6.96,3.52,13.798,7.311,20.636,11.107c10.507,5.832,21.37,11.865,32.398,16.604
			c17.696,7.599,33.227,9.391,47.463,5.437c14.37-3.977,27.754-12.567,40.688-20.873c3.89-2.498,7.765-4.979,11.656-7.347
			c8.491-5.173,52.478-30.374,84.13-18.375c12.389,4.699,20.873,14.224,25.221,28.306c4.151,13.475,2.801,25.572-4.025,35.965
			c-14.339,21.843-49.29,29.956-76.089,32.915c-2.581,0.284-5.303,0.521-8.12,0.765c-14.425,1.271-30.769,2.699-39.425,11.569
			c-9.564,9.801-5.997,28.93-3.393,42.906c1.073,5.761,2.21,11.048,3.346,16.343c0.939,4.364-1.839,8.657-6.203,9.596
			C299.288,381.736,298.712,381.791,298.152,381.791z"/>
	</g>
	<g>
		<path fill="#FFFFFF" d="M180.12,408.851c-9.174,0-17.728-2.707-25.095-7.994c-28.255-20.289-17.038-62.113-11.648-82.213
			c0.963-3.614,1.981-7.213,3.003-10.811c1.215-4.293,5.741-6.984,10.03-5.769c4.293,1.215,6.846,5.492,5.631,9.785
			c-1.109,3.914-2.107,7.426-3.05,10.969c-7.126,26.57-11.391,52.809,5.461,64.907c6.021,4.324,13.139,5.848,21.145,4.498
			c14.97-2.502,29.025-13.999,36.32-24.274c8.357-11.782,11.731-25.576,9.261-37.839c-2.064-10.227-8.12-18.718-17.519-24.55
			c-15.518-9.635-33.621-11.727-52.786-13.928c-12.634-1.46-25.702-2.959-38.254-6.794c-31.345-9.556-49.025-24.156-40.353-67.31
			c0.88-4.376,5.106-7.209,9.517-6.329c4.376,0.88,7.209,5.141,6.329,9.517c-6.483,32.248,3.306,40.763,29.222,48.67
			c11.147,3.393,22.921,4.751,35.389,6.187c20.091,2.312,40.866,4.711,59.462,16.256c13.281,8.246,21.867,20.383,24.834,35.085
			c3.35,16.619-0.994,34.983-11.924,50.387c-11.261,15.87-29.644,27.991-46.835,30.863
			C185.506,408.622,182.787,408.851,180.12,408.851z"/>
	</g>
	<g>
		<path fill="#FFFFFF" d="M340.039,412.512c-9.596,0-18.955-2.336-27.446-6.96c-3.922-2.131-5.366-7.039-3.228-10.961
			c2.139-3.914,7.023-5.374,10.961-3.228c10.432,5.69,22.822,6.542,34.896,2.367c26.847-9.249,18.908-44.31,7.584-82.505
			c-1.752-5.926-3.346-11.332-4.467-15.909c-1.057-4.34,1.602-8.712,5.934-9.77c4.364-1.081,8.712,1.602,9.77,5.934
			c1.057,4.364,2.588,9.509,4.261,15.151c9.675,32.655,25.876,87.318-17.811,102.375
			C353.707,411.352,346.81,412.512,340.039,412.512z"/>
	</g>
	<g>
		<path fill="#FFFFFF" d="M170.777,229.811c-0.371,0-0.746-0.024-1.121-0.075c-4.419-0.616-7.509-4.695-6.897-9.115
			c0.746-5.362,1.448-10.894,2.162-16.536c5.319-41.856,11.344-89.299,39.457-121.946c19.689-22.861,40.822-24.712,55.07-22.234
			c28.91,5.015,57.801,32.998,71.902,69.63c10.788,28.026,16.769,56.573,18.284,87.275c0.221,4.459-3.22,8.25-7.678,8.471
			c-4.506,0.103-8.246-3.22-8.467-7.674c-1.42-28.961-7.055-55.867-17.227-82.264c-11.94-31.029-36.435-55.5-59.58-59.517
			c-14.737-2.557-28.22,3.109-40.057,16.856c-24.941,28.965-30.642,73.844-35.669,113.439c-0.726,5.705-1.436,11.297-2.186,16.718
			C178.21,226.883,174.746,229.811,170.777,229.811z"/>
	</g>
</g>
</svg>
